# Blender v2.78 (sub 0) OBJ File: 'bird.blend'
# www.blender.org
o Cube
v -0.882198 -1.000000 -0.338829
v -0.882197 1.000000 -0.534740
v -0.633339 -1.000000 0.693504
v -0.882197 1.000000 0.693504
v -0.477279 -1.678656 -0.344577
v -0.477279 -1.945035 0.158350
v -0.707996 2.465049 -0.144787
v -0.707996 2.465049 0.144788
v -1.575320 3.820957 -0.053220
v -1.575320 3.820957 0.053223
v -0.406931 -1.611635 -0.214155
v -0.406931 -1.799489 0.140516
v -0.268153 -3.047184 -0.077956
v -0.268153 -3.116636 0.053170
v -1.091572 -0.825532 0.503813
v -1.091571 0.825532 0.503813
v -1.091572 -0.825532 0.911479
v -1.091571 0.825532 0.911479
v -3.644545 -0.825531 0.176709
v -3.644544 1.018142 0.176709
v -3.644545 -0.825531 0.397038
v -3.644544 1.018141 0.397038
v -5.048810 -0.585126 0.248136
v -5.048809 2.003575 0.248136
v -5.048810 -0.585125 0.325611
v -5.048809 2.003574 0.325611
v -1.361324 0.845884 0.534488
v -1.361324 0.845884 0.791885
v -1.361325 -0.825532 0.534488
v -1.361325 -0.825532 0.791885
v -4.346677 -0.811064 0.212423
v -4.346677 1.449845 0.212423
v -4.346677 1.449844 0.361324
v -4.346677 -0.811064 0.361324
v -0.731390 -1.000000 0.147018
v -0.749686 -0.993241 0.152427
v -0.706926 -1.128364 0.185768
v -0.629310 -1.128364 0.618364
v -0.505773 -1.559681 0.194739
v -0.730291 -1.175611 0.221930
v -0.667818 -1.175611 0.570127
v -0.568383 -1.522779 0.229150
v -0.190125 0.727030 -0.534740
v -0.190125 0.262654 -0.534740
v -0.692072 0.727030 -0.534740
v -0.692072 0.262654 -0.534740
v -0.190125 0.905076 -0.837185
v -0.190125 0.440699 -0.837185
v -0.692072 0.905076 -0.837185
v -0.692072 0.440699 -0.837185
v -0.190125 0.056293 -0.987606
v -0.190125 -0.408083 -0.987606
v -0.692072 0.056293 -0.987606
v -0.692072 -0.408083 -0.987606
v 0.000000 1.000000 -0.534740
v 0.000000 -1.000000 -0.338829
v 0.882198 -1.000000 -0.338829
v 0.882197 1.000000 -0.534740
v 0.000000 1.000000 0.693504
v 0.000000 -1.000001 0.693504
v 0.633339 -1.000000 0.693504
v 0.882197 1.000000 0.693504
v 0.000000 -1.678656 -0.344577
v 0.477279 -1.678656 -0.344577
v 0.000000 -1.945036 0.158350
v 0.477279 -1.945035 0.158350
v 0.000000 2.465049 -0.144787
v 0.707996 2.465049 -0.144787
v 0.000000 2.465049 0.144788
v 0.707996 2.465049 0.144788
v 0.000000 3.820957 -0.053220
v 1.575320 3.820957 -0.053220
v 0.000000 3.820956 0.053223
v 1.575320 3.820957 0.053223
v 0.000000 -1.611635 -0.214155
v 0.406931 -1.611635 -0.214155
v 0.000000 -1.799489 0.140516
v 0.406931 -1.799489 0.140516
v 0.000000 -3.047184 -0.077956
v 0.268153 -3.047184 -0.077956
v 0.000000 -3.116636 0.053170
v 0.268153 -3.116636 0.053170
v 1.091572 -0.825532 0.503813
v 1.091571 0.825532 0.503813
v 1.091572 -0.825532 0.911479
v 1.091571 0.825532 0.911479
v 3.644545 -0.825531 0.176709
v 3.644544 1.018142 0.176709
v 3.644545 -0.825531 0.397038
v 3.644544 1.018141 0.397038
v 5.048810 -0.585126 0.248136
v 5.048809 2.003575 0.248136
v 5.048810 -0.585125 0.325611
v 5.048809 2.003574 0.325611
v 1.361324 0.845884 0.534488
v 1.361324 0.845884 0.791885
v 1.361325 -0.825532 0.534488
v 1.361325 -0.825532 0.791885
v 4.346677 -0.811064 0.212423
v 4.346677 1.449845 0.212423
v 4.346677 1.449844 0.361324
v 4.346677 -0.811064 0.361324
v 0.731390 -1.000000 0.147018
v 0.749686 -0.993241 0.152427
v 0.706926 -1.128364 0.185768
v 0.629310 -1.128364 0.618364
v 0.505773 -1.559681 0.194739
v 0.730291 -1.175611 0.221930
v 0.667818 -1.175611 0.570127
v 0.568383 -1.522779 0.229150
v 0.190125 0.727030 -0.534740
v 0.190125 0.262654 -0.534740
v 0.692072 0.727030 -0.534740
v 0.692072 0.262654 -0.534740
v 0.190125 0.905076 -0.837185
v 0.190125 0.440699 -0.837185
v 0.692072 0.905076 -0.837185
v 0.692072 0.440699 -0.837185
v 0.190125 0.056293 -0.987606
v 0.190125 -0.408083 -0.987606
v 0.692072 0.056293 -0.987606
v 0.692072 -0.408083 -0.987606
vt 0.7173 0.7167
vt 0.6967 0.7947
vt 0.6967 0.7456
vt 0.4376 0.7340
vt 0.4643 0.6993
vt 0.4730 0.7471
vt 0.4730 0.6572
vt 0.6967 0.7947
vt 0.7171 0.9282
vt 0.4376 0.7340
vt 0.4643 0.6993
vt 0.4288 0.6862
vt 0.4730 0.6572
vt 0.4730 0.7471
vt 0.4288 0.6862
vt 0.4643 0.6094
vt 0.6967 0.7456
vt 0.4643 0.6094
vt 0.0000 0.2963
vt 0.0683 0.5075
vt 0.0000 0.5077
vt 0.3109 0.8112
vt 0.2967 0.7676
vt 0.3109 0.7612
vt 0.6654 1.0000
vt 0.6217 0.9282
vt 1.0000 0.8663
vt 0.9454 0.8727
vt 0.9130 0.8297
vt 0.6407 0.5618
vt 0.7172 0.5619
vt 0.0555 0.6093
vt 0.0040 0.6094
vt 0.5334 0.7129
vt 0.5334 0.6231
vt 0.5325 0.6094
vt 0.0805 0.1432
vt 0.0048 0.0004
vt 0.1747 0.0000
vt 0.0951 0.2961
vt 0.1327 0.9108
vt 0.0590 0.7570
vt 0.0903 0.7570
vt 0.5356 0.7745
vt 0.5471 0.6094
vt 0.5471 0.7743
vt 0.0814 0.6094
vt 0.7173 0.4185
vt 0.3407 0.6094
vt 0.3116 0.7612
vt 0.2967 0.6094
vt 0.4148 0.7489
vt 0.3991 0.7919
vt 0.3991 0.7489
vt 0.3991 0.7489
vt 0.3849 0.8002
vt 0.3849 0.7578
vt 0.3249 0.7612
vt 0.3109 0.7903
vt 0.3109 0.7622
vt 0.4288 0.7489
vt 0.3996 0.6094
vt 0.4285 0.6094
vt 0.8528 0.0233
vt 0.8890 0.1530
vt 0.8756 0.1616
vt 0.7620 0.4850
vt 0.8168 0.7209
vt 0.7347 0.4896
vt 0.1160 0.3138
vt 0.1160 0.4882
vt 0.7393 0.4403
vt 0.7605 0.4563
vt 0.7173 0.4636
vt 0.2424 0.8216
vt 0.1327 0.6373
vt 0.2424 0.6094
vt 0.6069 0.3441
vt 0.8268 0.4183
vt 0.5471 0.4184
vt 0.6721 0.0286
vt 0.8528 0.2698
vt 0.6535 0.2698
vt 0.1460 0.3119
vt 0.3951 0.4894
vt 0.1460 0.4886
vt 0.9138 0.8013
vt 0.9629 0.5665
vt 0.9865 0.5697
vt 0.8890 0.0000
vt 0.8974 0.2734
vt 0.8890 0.2734
vt 0.4711 0.2489
vt 0.5471 0.4639
vt 0.4711 0.4878
vt 0.9773 0.4940
vt 1.0000 0.4195
vt 0.9932 0.4961
vt 0.8539 0.7958
vt 0.8612 0.8776
vt 0.8381 0.7985
vt 0.8862 0.7975
vt 0.6743 0.0000
vt 0.8528 0.0285
vt 0.8401 0.7170
vt 0.3951 0.2945
vt 0.8512 0.3441
vt 0.4678 0.7471
vt 0.4634 0.7910
vt 0.4634 0.7505
vt 0.5270 0.8259
vt 0.4730 0.7537
vt 0.5270 0.7248
vt 0.8858 0.8770
vt 0.5249 0.6094
vt 0.5246 0.7090
vt 0.5079 0.6469
vt 0.4730 0.6968
vt 0.5249 0.7248
vt 0.5224 0.7023
vt 0.4894 0.6845
vt 0.5090 0.6523
vt 0.5279 0.7129
vt 0.5334 0.7557
vt 0.5279 0.7609
vt 0.4836 0.6869
vt 0.3494 0.6223
vt 0.3762 0.6577
vt 0.3407 0.6706
vt 0.6425 0.7456
vt 0.6220 0.7167
vt 0.6425 0.7947
vt 0.2424 0.7482
vt 0.2967 0.6585
vt 0.2967 0.7483
vt 0.4288 0.7471
vt 0.4634 0.8018
vt 0.4288 0.7996
vt 0.3730 0.8013
vt 0.3407 0.7514
vt 0.3730 0.7488
vt 0.2424 0.6094
vt 0.2424 0.6585
vt 0.2424 0.7483
vt 0.2965 0.8390
vt 0.2424 0.8385
vt 0.3849 0.7005
vt 0.3762 0.7488
vt 0.0683 0.5075
vt 0.0951 0.2961
vt 0.2967 0.7676
vt 0.3109 0.7612
vt 0.6654 1.0000
vt 0.6217 0.9282
vt 1.0000 0.8663
vt 0.9454 0.8727
vt 0.9457 0.8748
vt 0.6407 0.5618
vt 0.6220 0.7167
vt 0.0555 0.6093
vt 0.5334 0.6231
vt 0.5334 0.7129
vt 0.5325 0.6094
vt 0.0805 0.1432
vt 0.0041 0.1434
vt 0.1327 0.9108
vt 0.0590 0.7570
vt 0.0000 0.9108
vt 0.5471 0.6094
vt 0.0814 0.6094
vt 0.0903 0.7570
vt 0.3116 0.7612
vt 0.2967 0.6094
vt 0.3991 0.7919
vt 0.4148 0.7994
vt 0.3991 0.7489
vt 0.3849 0.8002
vt 0.3991 0.8091
vt 0.3109 0.7903
vt 0.3996 0.6094
vt 0.3849 0.7489
vt 0.8528 0.0233
vt 0.8890 0.1530
vt 0.8890 0.0000
vt 0.8168 0.7209
vt 0.7620 0.4850
vt 0.7347 0.4896
vt 0.1160 0.3138
vt 0.7393 0.4403
vt 0.7605 0.4563
vt 0.8694 0.4184
vt 0.1327 0.6373
vt 0.2424 0.8216
vt 0.2424 0.6094
vt 0.6069 0.3441
vt 0.8268 0.4183
vt 0.8512 0.3441
vt 0.6721 0.0286
vt 0.8528 0.2698
vt 0.8528 0.0285
vt 0.3951 0.4894
vt 0.1460 0.3119
vt 0.1460 0.4886
vt 0.9138 0.8013
vt 0.9629 0.5665
vt 0.8862 0.7975
vt 0.8890 0.0000
vt 0.8974 0.2734
vt 0.8974 0.0000
vt 0.5471 0.4639
vt 0.4711 0.2489
vt 0.4711 0.4878
vt 1.0000 0.4195
vt 0.9773 0.4940
vt 0.9932 0.4961
vt 0.8612 0.8776
vt 0.8539 0.7958
vt 0.8381 0.7985
vt 0.9130 0.8297
vt 0.8694 0.8237
vt 0.1160 0.4882
vt 0.6743 0.0000
vt 0.8528 0.0000
vt 0.7173 0.4636
vt 0.8401 0.7170
vt 0.9865 0.5697
vt 0.3951 0.2945
vt 0.6535 0.2698
vt 0.4678 0.7471
vt 0.4634 0.7910
vt 0.4678 0.7974
vt 0.4730 0.7537
vt 0.5270 0.8259
vt 0.5270 0.7248
vt 0.8858 0.8770
vt 0.5249 0.6094
vt 0.5246 0.7090
vt 0.5249 0.7248
vt 0.4730 0.6968
vt 0.5224 0.7023
vt 0.5090 0.6523
vt 0.4894 0.6845
vt 0.5334 0.7557
vt 0.5279 0.7129
vt 0.5279 0.7609
vt 0.4836 0.6869
vt 0.3762 0.6577
vt 0.3494 0.6223
vt 0.3407 0.6706
vt 0.6425 0.7456
vt 0.6425 0.7947
vt 0.2967 0.6585
vt 0.2424 0.7482
vt 0.2967 0.7483
vt 0.4634 0.8018
vt 0.4288 0.7471
vt 0.4288 0.7996
vt 0.3407 0.7514
vt 0.3730 0.8013
vt 0.3730 0.7488
vt 0.2424 0.6094
vt 0.2424 0.6585
vt 0.2424 0.8385
vt 0.2965 0.7488
vt 0.2424 0.7483
vt 0.3849 0.7005
vt 0.3849 0.6094
vt 0.2967 0.8103
vt 0.7170 1.0000
vt 0.9457 0.8748
vt 0.5249 0.6728
vt 0.0000 0.9108
vt 0.5356 0.6096
vt 0.0699 0.6094
vt 0.5471 0.4184
vt 0.3406 0.7612
vt 0.4148 0.7994
vt 0.3991 0.8091
vt 0.3249 0.7893
vt 0.3849 0.7489
vt 0.8890 0.0000
vt 0.8694 0.4184
vt 0.1501 0.8109
vt 0.8974 0.0000
vt 0.5471 0.1903
vt 0.9917 0.4184
vt 0.8694 0.8762
vt 0.8694 0.8237
vt 0.8528 0.0000
vt 0.4678 0.7974
vt 0.4743 0.8274
vt 0.5334 0.7170
vt 0.3849 0.6094
vt 0.4634 0.7492
vt 0.3407 0.8040
vt 0.2967 0.6094
vt 0.2965 0.7488
vt 0.5249 0.6728
vt 0.1747 0.0000
vt 0.5356 0.6096
vt 0.0699 0.6094
vt 0.5471 0.4184
vt 0.3849 0.7578
vt 0.3249 0.7893
vt 0.8756 0.1616
vt 0.1501 0.8109
vt 0.5471 0.4184
vt 0.8890 0.2734
vt 0.5471 0.1903
vt 0.9917 0.4184
vt 0.8694 0.8762
vt 0.4634 0.7505
vt 0.4743 0.8274
vt 0.5079 0.6469
vt 0.5334 0.7170
vt 0.4634 0.7492
vt 0.3407 0.8040
vt 0.2967 0.6094
vt 0.2965 0.8390
vt 0.3762 0.7488
vn 0.0000 0.0000 -1.0000
vn 1.0000 0.0000 0.0000
vn -0.3537 -0.0912 -0.9309
vn -1.0000 0.0000 0.0000
vn 0.3537 -0.0912 -0.9309
vn 0.0000 0.1782 0.9840
vn -0.2305 -0.5017 0.8338
vn 0.0000 -0.2548 0.9670
vn 0.0000 -0.8513 -0.5246
vn 0.2553 -0.9071 -0.3346
vn -0.3313 -0.7058 -0.6261
vn 0.0000 -0.0700 -0.9975
vn -0.7032 -0.3631 -0.6112
vn -0.3415 -0.9359 0.0865
vn -0.5455 -0.7637 -0.3450
vn 0.0000 0.1219 -0.9925
vn -0.6348 -0.0045 -0.7726
vn 0.0000 0.1630 -0.9866
vn -0.3507 -0.9353 0.0461
vn 0.0000 -0.9807 -0.1954
vn -0.9836 -0.1183 -0.1358
vn -0.7189 -0.6869 0.1064
vn -0.6516 0.0298 0.7579
vn 0.0000 0.7305 0.6829
vn -0.7371 0.4093 0.5378
vn -0.3907 0.5182 0.7608
vn -0.6522 0.1549 -0.7421
vn 0.0000 0.7305 -0.6829
vn -0.7371 0.4093 -0.5378
vn 0.0000 -0.8772 -0.4801
vn -0.5714 -0.4717 -0.6715
vn -0.0810 -0.7893 -0.6086
vn 0.0000 -0.9996 0.0278
vn 0.0000 -0.8733 0.4871
vn 0.0000 -0.5557 -0.8314
vn -0.5288 -0.7463 0.4042
vn 0.0740 0.7356 -0.6733
vn 0.1199 0.6409 0.7581
vn -0.1391 0.7410 0.6569
vn 0.0605 0.5433 0.8373
vn -0.0594 -0.5764 0.8150
vn -0.6564 0.6613 -0.3631
vn 0.3651 0.5780 -0.7298
vn -0.6647 -0.4738 -0.5777
vn -0.3703 0.7562 -0.5396
vn 0.0312 -0.6872 -0.7258
vn 0.2229 0.5870 -0.7783
vn -0.0837 -0.7227 0.6860
vn -0.1964 -0.7358 0.6481
vn 0.0142 -0.7385 -0.6741
vn -0.3703 0.7561 0.5396
vn 0.3651 0.5780 0.7298
vn -0.6647 -0.4738 0.5777
vn -0.1521 -0.7247 0.6720
vn -0.1521 -0.7247 -0.6720
vn -0.6207 -0.7839 0.0143
vn -0.9708 -0.0282 -0.2380
vn -0.6426 -0.3640 0.6742
vn -0.8444 -0.2642 0.4660
vn -0.7649 -0.2264 0.6030
vn -0.4526 0.2913 -0.8427
vn -0.9428 -0.3027 0.1394
vn -0.3364 -0.3139 -0.8878
vn 0.3364 -0.3139 -0.8878
vn 0.5609 0.7519 -0.3464
vn -0.6879 0.0636 -0.7230
vn -0.5609 0.7519 -0.3464
vn 0.4526 0.2913 -0.8427
vn 0.9428 -0.3027 0.1394
vn 0.5375 -0.8400 -0.0739
vn 0.6879 0.0635 -0.7230
vn -0.5375 -0.8400 -0.0739
vn 0.2305 -0.5017 0.8338
vn 0.3907 0.5182 0.7608
vn -0.2553 -0.9071 -0.3346
vn 0.3313 -0.7058 -0.6261
vn 0.7032 -0.3631 -0.6112
vn 0.3415 -0.9359 0.0865
vn 0.7189 -0.6869 0.1064
vn 0.6348 -0.0045 -0.7726
vn 0.6522 0.1549 -0.7421
vn 0.3507 -0.9353 0.0461
vn 0.9836 -0.1183 -0.1358
vn 0.6516 0.0298 0.7579
vn 0.0000 0.2113 0.9774
vn 0.7371 0.4093 0.5378
vn 0.7371 0.4093 -0.5378
vn 0.5714 -0.4717 -0.6715
vn 0.0810 -0.7893 -0.6086
vn 0.5288 -0.7463 0.4042
vn -0.1199 0.6409 0.7581
vn -0.0740 0.7356 -0.6733
vn 0.1391 0.7410 0.6569
vn -0.0605 0.5433 0.8373
vn 0.6564 0.6613 -0.3631
vn -0.3651 0.5780 -0.7298
vn 0.6647 -0.4738 -0.5777
vn 0.1521 -0.7247 -0.6720
vn -0.0312 -0.6872 -0.7258
vn -0.0142 -0.7385 -0.6741
vn 0.0837 -0.7227 0.6860
vn 0.1964 -0.7358 0.6481
vn 0.3703 0.7561 0.5396
vn 0.6647 -0.4738 0.5777
vn -0.3651 0.5780 0.7298
vn 0.1521 -0.7247 0.6720
vn 0.5455 -0.7637 -0.3450
vn 0.0594 -0.5764 0.8150
vn -0.2229 0.5870 -0.7783
vn 0.6207 -0.7839 0.0143
vn 0.8444 -0.2642 0.4660
vn 0.6426 -0.3640 0.6742
vn 0.7649 -0.2264 0.6030
vn 0.9708 -0.0282 -0.2380
vn 0.6879 0.0636 -0.7230
vn -0.6879 0.0635 -0.7230
vn 0.3703 0.7562 -0.5396
s off
f 55/1/1 44/2/1 43/3/1
f 43/4/2 48/5/2 47/6/2
f 48/5/2 51/7/2 47/6/2
f 55/1/3 112/8/3 56/9/3
f 111/10/4 116/11/4 112/12/4
f 119/13/4 116/11/4 115/14/4
f 55/1/5 56/9/5 44/2/5
f 43/4/2 44/15/2 48/5/2
f 48/5/2 52/16/2 51/7/2
f 55/1/1 111/17/1 112/8/1
f 111/10/4 115/14/4 116/11/4
f 119/13/4 120/18/4 116/11/4
s 1
f 59/19/6 3/20/7 60/21/8
f 63/22/9 11/23/10 5/24/11
f 56/9/12 5/25/11 1/26/13
f 1/27/13 36/28/14 15/29/15
f 55/1/16 7/30/17 67/31/18
f 60/21/8 6/32/19 65/33/20
f 6/34/19 37/35/21 35/36/22
f 8/37/23 73/38/24 10/39/25
f 59/19/6 8/37/23 4/40/26
f 2/41/27 8/42/23 7/43/17
f 71/44/28 10/45/25 73/46/24
f 8/42/23 9/47/29 7/43/17
f 7/30/17 71/48/28 67/31/18
f 75/49/30 13/50/31 11/51/10
f 65/52/20 12/53/32 77/54/33
f 6/55/19 11/56/10 12/57/32
f 81/58/34 13/59/31 79/60/35
f 77/61/33 14/62/36 81/63/34
f 12/64/32 13/65/31 14/66/36
f 27/67/37 22/68/38 28/69/39
f 3/20/7 18/70/40 17/71/41
f 4/72/26 16/73/42 18/74/40
f 1/75/13 16/76/42 2/77/27
f 32/78/43 23/79/44 24/80/45
f 27/81/37 19/82/46 20/83/47
f 28/84/39 21/85/48 30/86/49
f 29/87/50 21/88/48 19/89/46
f 23/90/44 26/91/51 24/92/45
f 33/93/52 25/94/53 34/95/54
f 34/96/54 23/97/44 31/98/55
f 32/99/43 26/100/51 33/101/52
f 15/29/15 30/102/49 29/87/50
f 18/70/40 30/86/49 17/71/41
f 16/103/42 29/104/50 27/81/37
f 16/73/42 28/69/39 18/74/40
f 20/105/47 33/101/52 22/68/38
f 21/88/48 31/98/55 19/89/46
f 22/106/38 34/95/54 21/85/48
f 20/83/47 31/107/55 32/78/43
f 37/108/21 42/109/56 40/110/57
f 35/111/22 5/112/11 6/113/19
f 36/28/14 3/114/7 15/29/15
f 6/115/19 38/116/58 39/117/59
f 35/118/22 38/116/58 3/119/7
f 41/120/60 40/121/57 42/122/56
f 38/123/58 42/124/56 39/125/59
f 37/126/21 41/120/60 38/116/58
f 45/127/61 50/128/62 46/129/63
f 1/26/13 44/2/64 56/9/12
f 55/1/16 45/130/61 2/131/27
f 2/131/27 46/132/63 1/26/13
f 47/133/65 53/134/66 49/135/67
f 43/136/68 49/137/67 45/138/61
f 46/139/63 48/140/69 44/141/64
f 52/142/70 53/134/66 51/143/71
f 48/144/69 54/145/72 52/146/70
f 50/128/62 53/147/66 54/148/72
f 59/19/6 61/149/73 62/150/74
f 76/151/75 63/22/9 64/152/76
f 64/153/76 56/9/12 57/154/77
f 57/155/77 104/156/78 103/157/79
f 55/1/16 68/158/80 58/159/81
f 60/21/8 66/160/82 61/149/73
f 105/161/83 66/162/82 103/163/79
f 70/164/84 73/38/24 69/165/85
f 70/164/84 59/19/6 62/150/74
f 58/166/81 70/167/84 62/168/74
f 74/169/86 71/44/28 73/46/24
f 72/170/87 70/167/84 68/171/80
f 71/48/28 68/158/80 67/31/18
f 80/172/88 75/49/30 76/173/75
f 65/52/20 78/174/89 66/175/82
f 66/176/82 76/177/75 64/178/76
f 80/179/88 81/58/34 79/60/35
f 77/61/33 82/180/90 78/181/89
f 78/182/89 80/183/88 76/184/75
f 90/185/91 95/186/92 96/187/93
f 61/149/73 86/188/94 62/150/74
f 62/189/74 84/190/95 58/191/81
f 84/192/95 57/193/77 58/194/81
f 100/195/96 91/196/97 99/197/98
f 95/198/92 87/199/99 97/200/100
f 89/201/101 96/202/93 98/203/102
f 97/204/100 89/205/101 98/206/102
f 91/207/97 94/208/103 93/209/104
f 93/210/104 101/211/105 102/212/106
f 91/213/97 102/214/106 99/215/98
f 94/216/103 100/217/96 101/218/105
f 83/219/107 98/206/102 85/220/108
f 98/203/102 86/188/94 85/221/108
f 84/222/95 97/200/100 83/223/107
f 96/187/93 84/190/95 86/224/94
f 101/218/105 88/225/109 90/185/91
f 99/215/98 89/205/101 87/226/99
f 102/212/106 90/227/91 89/201/101
f 88/228/109 99/197/98 87/199/99
f 105/229/83 110/230/110 107/231/111
f 64/232/76 103/233/79 66/234/82
f 61/235/73 103/157/79 104/156/78
f 66/236/82 106/237/112 61/238/73
f 106/237/112 103/239/79 61/238/73
f 109/240/113 110/241/110 108/242/114
f 110/243/110 106/244/112 107/245/111
f 109/240/113 105/246/83 106/237/112
f 118/247/69 113/248/68 114/249/64
f 112/8/63 57/154/77 56/9/12
f 113/250/68 55/1/16 58/159/81
f 114/251/64 58/159/81 57/154/77
f 121/252/115 115/253/67 117/254/65
f 117/255/65 111/256/61 113/257/68
f 116/258/62 114/259/64 112/260/63
f 121/252/115 120/261/72 119/262/116
f 120/263/72 118/264/69 116/265/62
f 118/247/69 121/266/115 117/267/65
f 59/19/6 4/40/26 3/20/7
f 63/22/9 75/268/30 11/23/10
f 56/9/12 63/269/9 5/25/11
f 1/27/13 35/270/22 36/28/14
f 55/1/16 2/131/27 7/30/17
f 60/21/8 3/20/7 6/32/19
f 6/34/19 39/271/59 37/35/21
f 8/37/23 69/165/85 73/38/24
f 59/19/6 69/165/85 8/37/23
f 2/41/27 4/272/26 8/42/23
f 71/44/28 9/273/29 10/45/25
f 8/42/23 10/274/25 9/47/29
f 7/30/17 9/275/29 71/48/28
f 75/49/30 79/276/35 13/50/31
f 65/52/20 6/277/19 12/53/32
f 6/55/19 5/278/11 11/56/10
f 81/58/34 14/279/36 13/59/31
f 77/61/33 12/280/32 14/62/36
f 12/64/32 11/281/10 13/65/31
f 27/67/37 20/105/47 22/68/38
f 3/20/7 4/40/26 18/70/40
f 4/72/26 2/282/27 16/73/42
f 1/75/13 15/283/15 16/76/42
f 32/78/43 31/107/55 23/79/44
f 27/81/37 29/104/50 19/82/46
f 28/84/39 22/106/38 21/85/48
f 29/87/50 30/102/49 21/88/48
f 23/90/44 25/284/53 26/91/51
f 33/93/52 26/285/51 25/94/53
f 34/96/54 25/286/53 23/97/44
f 32/99/43 24/287/45 26/100/51
f 15/29/15 17/288/41 30/102/49
f 18/70/40 28/84/39 30/86/49
f 16/103/42 15/289/15 29/104/50
f 16/73/42 27/67/37 28/69/39
f 20/105/47 32/99/43 33/101/52
f 21/88/48 34/96/54 31/98/55
f 22/106/38 33/93/52 34/95/54
f 20/83/47 19/82/46 31/107/55
f 37/108/21 39/290/59 42/109/56
f 35/111/22 1/291/13 5/112/11
f 17/288/41 15/29/15 3/114/7
f 36/28/14 35/270/22 3/114/7
f 6/115/19 3/119/7 38/116/58
f 35/118/22 37/126/21 38/116/58
f 38/123/58 41/292/60 42/124/56
f 37/126/21 40/121/57 41/120/60
f 45/127/61 49/293/67 50/128/62
f 1/26/13 46/132/63 44/2/64
f 55/1/16 43/3/68 45/130/61
f 2/131/27 45/130/61 46/132/63
f 47/133/65 51/143/71 53/134/66
f 43/136/68 47/294/65 49/137/67
f 46/139/63 50/295/62 48/140/69
f 52/142/70 54/296/72 53/134/66
f 48/144/69 50/297/62 54/145/72
f 50/128/62 49/293/67 53/147/66
f 59/19/6 60/21/8 61/149/73
f 76/151/75 75/268/30 63/22/9
f 64/153/76 63/269/9 56/9/12
f 57/155/77 83/219/107 104/156/78
f 55/1/16 67/31/18 68/158/80
f 60/21/8 65/33/20 66/160/82
f 105/161/83 107/298/111 66/162/82
f 70/164/84 74/299/86 73/38/24
f 70/164/84 69/165/85 59/19/6
f 58/166/81 68/171/80 70/167/84
f 74/169/86 72/300/87 71/44/28
f 72/170/87 74/301/86 70/167/84
f 71/48/28 72/302/87 68/158/80
f 80/172/88 79/276/35 75/49/30
f 65/52/20 77/54/33 78/174/89
f 66/176/82 78/303/89 76/177/75
f 80/179/88 82/304/90 81/58/34
f 77/61/33 81/63/34 82/180/90
f 78/182/89 82/305/90 80/183/88
f 90/185/91 88/225/109 95/186/92
f 61/149/73 85/221/108 86/188/94
f 62/189/74 86/224/94 84/190/95
f 84/192/95 83/306/107 57/193/77
f 100/195/96 92/307/117 91/196/97
f 95/198/92 88/228/109 87/199/99
f 89/201/101 90/227/91 96/202/93
f 97/204/100 87/226/99 89/205/101
f 91/207/97 92/308/117 94/208/103
f 93/210/104 94/309/103 101/211/105
f 91/213/97 93/310/104 102/214/106
f 94/216/103 92/311/117 100/217/96
f 83/219/107 97/204/100 98/206/102
f 98/203/102 96/202/93 86/188/94
f 84/222/95 95/198/92 97/200/100
f 96/187/93 95/186/92 84/190/95
f 101/218/105 100/217/96 88/225/109
f 99/215/98 102/214/106 89/205/101
f 102/212/106 101/211/105 90/227/91
f 88/228/109 100/195/96 99/197/98
f 105/229/83 108/312/114 110/230/110
f 64/232/76 57/313/77 103/233/79
f 104/156/78 83/219/107 61/235/73
f 85/220/108 61/235/73 83/219/107
f 66/236/82 107/314/111 106/237/112
f 106/237/112 105/246/83 103/239/79
f 110/243/110 109/315/113 106/244/112
f 109/240/113 108/242/114 105/246/83
f 118/247/69 117/267/65 113/248/68
f 112/8/63 114/251/64 57/154/77
f 113/250/68 111/17/61 55/1/16
f 114/251/64 113/250/68 58/159/81
f 121/252/115 119/262/116 115/253/67
f 117/255/65 115/316/67 111/256/61
f 116/258/62 118/317/69 114/259/64
f 121/252/115 122/318/70 120/261/72
f 120/263/72 122/319/70 118/264/69
f 118/247/69 122/320/70 121/266/115
